<?xml version="1.0"?>
<svg xmlns="http://www.w3.org/2000/svg" xmlns:xlink="http://www.w3.org/1999/xlink" version="1.1" id="Capa_1" x="0px" y="0px" viewBox="0 0 424 424" style="enable-background:new 0 0 424 424;" xml:space="preserve" width="512px" height="512px" class=""><g><g>
	<g>
		<rect x="128.64" y="278.64" width="28" height="22.72" data-original="#000000" class="active-path" fill="#000000"/>
	</g>
</g><g>
	<g>
		<rect x="267.12" y="158.24" width="28.08" height="26.96" data-original="#000000" class="active-path" fill="#000000"/>
	</g>
</g><g>
	<g>
		<rect x="128.64" y="201.2" width="28" height="22.72" data-original="#000000" class="active-path" fill="#000000"/>
	</g>
</g><g>
	<g>
		<rect x="128.64" y="317.44" width="28" height="26.96" data-original="#000000" class="active-path" fill="#000000"/>
	</g>
</g><g>
	<g>
		<rect x="128.64" y="239.92" width="28" height="22.72" data-original="#000000" class="active-path" fill="#000000"/>
	</g>
</g><g>
	<g>
		<rect x="267.12" y="317.44" width="28.08" height="26.96" data-original="#000000" class="active-path" fill="#000000"/>
	</g>
</g><g>
	<g>
		<rect x="267.12" y="278.64" width="28.08" height="22.72" data-original="#000000" class="active-path" fill="#000000"/>
	</g>
</g><g>
	<g>
		<rect x="128.64" y="158.24" width="28" height="26.96" data-original="#000000" class="active-path" fill="#000000"/>
	</g>
</g><g>
	<g>
		<rect x="267.12" y="201.2" width="28.08" height="22.72" data-original="#000000" class="active-path" fill="#000000"/>
	</g>
</g><g>
	<g>
		<rect x="172.64" y="259.28" width="78.4" height="85.04" data-original="#000000" class="active-path" fill="#000000"/>
	</g>
</g><g>
	<g>
		<rect x="267.12" y="239.92" width="28.08" height="22.72" data-original="#000000" class="active-path" fill="#000000"/>
	</g>
</g><g>
	<g>
		<rect x="172.64" y="158.24" width="78.4" height="85.04" data-original="#000000" class="active-path" fill="#000000"/>
	</g>
</g><g>
	<g>
		<path d="M280.72,11.68v96.8c0,0.72,0.32,1.12,0.64,1.12h94L280.72,11.68z" data-original="#000000" class="active-path" fill="#000000"/>
	</g>
</g><g>
	<g>
		<path d="M382.32,125.6H281.36c-9.291-0.088-16.764-7.668-16.72-16.96V0H49.6c-8.837,0-16,7.163-16,16v392c0,8.837,7.163,16,16,16    h324.8c8.837,0,16-7.163,16-16V125.6H382.32z M311.12,345.04c0,8.483-6.877,15.36-15.36,15.36h-168    c-8.483,0-15.36-6.877-15.36-15.36V157.6c0-8.483,6.877-15.36,15.36-15.36h168c8.483,0,15.36,6.877,15.36,15.36V345.04z" data-original="#000000" class="active-path" fill="#000000"/>
	</g>
</g></g> </svg>
